# xmcd
#
# Track frame offsets: 
#        182
#        17757
#        38577
#        64237
#        93222
#        119985
#        136537
#        163537
#
# Disc length: 2649 seconds
#
# Revision: 0
# Processed by: cddbd v1.5.2PL0 Copyright (c) Steve Scherf et al.
# Submitted via: ExactAudioCopy v0.99pb5
#
DISCID=610a5708
DTITLE=Parliament - Trombipulation
DYEAR=1980
DGENRE=Funk
TTITLE0=Crush It
TTITLE1=Trombipulation
TTITLE2=Long Way Around
TTITLE3=Agony of Defeet
TTITLE4=New Doo Review
TTITLE5=Let's Play House
TTITLE6=Body Language
TTITLE7=Peek-A-Groove
EXTD=
EXTT0=Crush It
EXTT1=
EXTT2=
EXTT3=
EXTT4=
EXTT5=
EXTT6=
EXTT7=
PLAYORDER=
